# xmcd
#
# Track frame offsets:
# 150
# 12672
# 23403
# 34274
# 44780
# 55625
# 65549
# 74041
# 85112
# 96258
# 105887
# 118286
#
# Disc length: 1714 seconds
#
#
# Revision: 0
# Processed by: cddbd v1.4PL0 Copyright (c) Steve Scherf et al.
# Submitted via: FreeRIP 2.00 
#
DISCID=a306b00c
DTITLE=George Jones - The George Jones Song Book And Picture Album
DYEAR=1967
DGENRE=Country
TTITLE0=Color Of The Blues
TTITLE1=Tall Tall Trees
TTITLE2=Accidentally On Purpose
TTITLE3=Maiden's Prayer (Instrumental)
TTITLE4=Gonna Come Get You
TTITLE5=Don't Do This To Me
TTITLE6=That's The Way I Feel
TTITLE7=One Is A Lonely Number
TTITLE8=You Gotta Be My Baby
TTITLE9=Frozen Heart
TTITLE10=Frankie And Johnny (Instrumental)
TTITLE11=Window Up Above
EXTD=Starday SLP 401
EXTT0=
EXTT1=
EXTT2=
EXTT3=
EXTT4=
EXTT5=
EXTT6=
EXTT7=
EXTT8=
EXTT9=
EXTT10=
EXTT11=
PLAYORDER=
